<svg xmlns="http://www.w3.org/2000/svg" xmlns:xlink="http://www.w3.org/1999/xlink" viewBox="0 0 211.13 347.29"><defs><style>.cls-1,.cls-3,.cls-4,.cls-5,.cls-6,.cls-7{fill:none;stroke-width:3px;}.cls-1,.cls-4,.cls-5,.cls-6,.cls-7{stroke-linecap:round;stroke-linejoin:round;}.cls-1{stroke:url(#Degradado_sin_nombre_2);}.cls-2{fill:url(#Degradado_sin_nombre_2-2);}.cls-3{stroke:#71dee6;stroke-miterlimit:10;}.cls-4{stroke:#003f73;}.cls-5{stroke:#05c5d4;}.cls-6{stroke:url(#Degradado_sin_nombre_2-3);}.cls-7{stroke:url(#Degradado_sin_nombre_2-4);}.cls-8{fill:url(#Degradado_sin_nombre_2-5);}.cls-9{fill:url(#Degradado_sin_nombre_2-6);}.cls-10{fill:#00b4c8;}.cls-11{fill:#1c2e68;}.cls-12{fill:#71dee6;}</style><linearGradient id="Degradado_sin_nombre_2" x1="18.56" y1="103.11" x2="53.76" y2="103.11" gradientUnits="userSpaceOnUse"><stop offset="0" stop-color="#29275e"/><stop offset="1" stop-color="#05c5d4"/></linearGradient><linearGradient id="Degradado_sin_nombre_2-2" x1="10.79" y1="38.83" x2="88.45" y2="38.83" xlink:href="#Degradado_sin_nombre_2"/><linearGradient id="Degradado_sin_nombre_2-3" x1="165.01" y1="20.94" x2="200.2" y2="20.94" xlink:href="#Degradado_sin_nombre_2"/><linearGradient id="Degradado_sin_nombre_2-4" x1="78.65" y1="327.9" x2="113.84" y2="327.9" xlink:href="#Degradado_sin_nombre_2"/><linearGradient id="Degradado_sin_nombre_2-5" x1="135.3" y1="102.05" x2="168.97" y2="102.05" xlink:href="#Degradado_sin_nombre_2"/><linearGradient id="Degradado_sin_nombre_2-6" x1="155.78" y1="261.45" x2="195.88" y2="261.45" xlink:href="#Degradado_sin_nombre_2"/></defs><g id="Слой_2" data-name="Слой 2"><g id="OBJECTS"><line class="cls-1" x1="52.26" y1="85.22" x2="20.06" y2="121"/><rect class="cls-2" x="10.79" width="77.67" height="77.67"/><rect class="cls-3" x="59.37" y="35.58" width="58.17" height="23.56"/><line class="cls-4" x1="33.69" y1="230.98" x2="1.5" y2="266.76"/><line class="cls-5" x1="180.78" y1="175.76" x2="148.58" y2="211.55"/><line class="cls-6" x1="198.7" y1="3.05" x2="166.51" y2="38.83"/><line class="cls-7" x1="112.34" y1="310.01" x2="80.15" y2="345.79"/><rect class="cls-3" x="18.5" y="270.97" width="58.17" height="42.6"/><rect class="cls-8" x="135.3" y="85.22" width="33.67" height="33.67"/><rect class="cls-9" x="155.78" y="241.39" width="40.1" height="40.1"/><path class="cls-10" d="M200.18,117.65a1.48,1.48,0,1,0,1.48,1.48A1.48,1.48,0,0,0,200.18,117.65Z"/><path class="cls-10" d="M209.65,117.65a1.48,1.48,0,1,0,1.48,1.48A1.48,1.48,0,0,0,209.65,117.65Z"/><path class="cls-10" d="M200.18,126.53a1.48,1.48,0,1,0,1.48,1.48A1.48,1.48,0,0,0,200.18,126.53Z"/><path class="cls-10" d="M209.65,126.53a1.48,1.48,0,1,0,1.48,1.48A1.48,1.48,0,0,0,209.65,126.53Z"/><path class="cls-10" d="M200.18,135.42a1.48,1.48,0,1,0,1.48,1.47A1.47,1.47,0,0,0,200.18,135.42Z"/><path class="cls-10" d="M209.65,135.42a1.48,1.48,0,1,0,1.48,1.47A1.47,1.47,0,0,0,209.65,135.42Z"/><path class="cls-10" d="M200.18,144.3a1.48,1.48,0,1,0,1.48,1.48A1.48,1.48,0,0,0,200.18,144.3Z"/><path class="cls-10" d="M209.65,144.3a1.48,1.48,0,1,0,1.48,1.48A1.48,1.48,0,0,0,209.65,144.3Z"/><path class="cls-10" d="M200.18,153.18a1.48,1.48,0,1,0,1.48,1.48A1.48,1.48,0,0,0,200.18,153.18Z"/><path class="cls-10" d="M209.65,153.18a1.48,1.48,0,1,0,1.48,1.48A1.48,1.48,0,0,0,209.65,153.18Z"/><path class="cls-10" d="M200.18,162.06a1.48,1.48,0,1,0,1.48,1.48A1.48,1.48,0,0,0,200.18,162.06Z"/><path class="cls-10" d="M209.65,162.06a1.48,1.48,0,1,0,1.48,1.48A1.48,1.48,0,0,0,209.65,162.06Z"/><path class="cls-10" d="M200.18,170.94a1.48,1.48,0,1,0,1.48,1.48A1.48,1.48,0,0,0,200.18,170.94Z"/><path class="cls-10" d="M209.65,170.94a1.48,1.48,0,1,0,1.48,1.48A1.48,1.48,0,0,0,209.65,170.94Z"/><path class="cls-11" d="M57.39,212a1.48,1.48,0,1,0-1.48,1.48A1.48,1.48,0,0,0,57.39,212Z"/><path class="cls-11" d="M57.39,221.46a1.48,1.48,0,1,0-1.48,1.48A1.48,1.48,0,0,0,57.39,221.46Z"/><path class="cls-11" d="M48.51,212A1.48,1.48,0,1,0,47,213.47,1.48,1.48,0,0,0,48.51,212Z"/><path class="cls-11" d="M48.51,221.46A1.48,1.48,0,1,0,47,222.94,1.48,1.48,0,0,0,48.51,221.46Z"/><path class="cls-11" d="M39.63,212a1.48,1.48,0,1,0-1.48,1.48A1.48,1.48,0,0,0,39.63,212Z"/><path class="cls-11" d="M39.63,221.46a1.48,1.48,0,1,0-1.48,1.48A1.48,1.48,0,0,0,39.63,221.46Z"/><path class="cls-11" d="M30.75,212a1.48,1.48,0,1,0-1.48,1.48A1.48,1.48,0,0,0,30.75,212Z"/><path class="cls-11" d="M30.75,221.46a1.48,1.48,0,1,0-1.48,1.48A1.48,1.48,0,0,0,30.75,221.46Z"/><path class="cls-11" d="M21.87,212a1.48,1.48,0,1,0-1.48,1.48A1.48,1.48,0,0,0,21.87,212Z"/><path class="cls-11" d="M21.87,221.46a1.48,1.48,0,1,0-1.48,1.48A1.48,1.48,0,0,0,21.87,221.46Z"/><path class="cls-11" d="M13,212a1.48,1.48,0,1,0-1.48,1.48A1.48,1.48,0,0,0,13,212Z"/><path class="cls-11" d="M13,221.46a1.48,1.48,0,1,0-1.48,1.48A1.48,1.48,0,0,0,13,221.46Z"/><path class="cls-11" d="M4.11,212a1.48,1.48,0,1,0-1.48,1.48A1.48,1.48,0,0,0,4.11,212Z"/><path class="cls-11" d="M4.11,221.46a1.48,1.48,0,1,0-1.48,1.48A1.48,1.48,0,0,0,4.11,221.46Z"/><rect class="cls-11" x="91.79" y="224.68" width="12.44" height="12.44"/><rect class="cls-12" x="132.5" y="292.27" width="19.63" height="19.63"/><rect class="cls-12" x="193.79" y="52.93" width="14.39" height="14.39"/></g></g></svg>