<svg xmlns="http://www.w3.org/2000/svg" xmlns:xlink="http://www.w3.org/1999/xlink" viewBox="0 0 364.35 460.85"><defs><style>.cls-1{fill:#fd5014;}.cls-2{fill:url(#Degradado_sin_nombre_107);}.cls-10,.cls-3,.cls-5{fill:none;stroke-width:3px;}.cls-3{stroke:#ed6e42;stroke-miterlimit:10;}.cls-4{fill:#cd16cd;}.cls-10,.cls-5{stroke-linecap:round;stroke-linejoin:round;}.cls-5{stroke:url(#Degradado_sin_nombre_4);}.cls-6{fill:#fd6c3a;}.cls-7{fill:url(#Degradado_sin_nombre_107-2);}.cls-8{fill:url(#Degradado_sin_nombre_106);}.cls-9{fill:url(#Degradado_sin_nombre_106-2);}.cls-10{stroke:url(#Degradado_sin_nombre_4-2);}</style><linearGradient id="Degradado_sin_nombre_107" y1="75.29" x2="169.77" y2="75.29" gradientUnits="userSpaceOnUse"><stop offset="0.01" stop-color="#fd5014"/><stop offset="1" stop-color="#ca2e82"/></linearGradient><linearGradient id="Degradado_sin_nombre_4" x1="242.25" y1="79" x2="328.01" y2="79" gradientUnits="userSpaceOnUse"><stop offset="0" stop-color="#cd16cd"/><stop offset="0.01" stop-color="#cc16cc"/><stop offset="0.46" stop-color="#9a19b3"/><stop offset="0.81" stop-color="#7b1ba4"/><stop offset="1" stop-color="#6f1c9e"/></linearGradient><linearGradient id="Degradado_sin_nombre_107-2" x1="204.4" y1="373.78" x2="247.64" y2="373.78" xlink:href="#Degradado_sin_nombre_107"/><linearGradient id="Degradado_sin_nombre_106" x1="244.44" y1="304.02" x2="264.33" y2="304.02" gradientUnits="userSpaceOnUse"><stop offset="0.01" stop-color="#fd6c3a"/><stop offset="1" stop-color="#ca2e82"/></linearGradient><linearGradient id="Degradado_sin_nombre_106-2" x1="128.16" y1="307.48" x2="146.8" y2="307.48" gradientTransform="matrix(0.65, -0.76, 0.76, 0.65, -214.51, 295.7)" xlink:href="#Degradado_sin_nombre_106"/><linearGradient id="Degradado_sin_nombre_4-2" x1="124.59" y1="422.65" x2="210.36" y2="422.65" xlink:href="#Degradado_sin_nombre_4"/></defs><g id="Слой_2" data-name="Слой 2"><g id="OBJECTS"><path class="cls-1" d="M66.16,337.91a2,2,0,1,0,2-1.76A1.89,1.89,0,0,0,66.16,337.91Z"/><path class="cls-1" d="M66.16,326.61a2,2,0,1,0,2-1.76A1.89,1.89,0,0,0,66.16,326.61Z"/><path class="cls-1" d="M66.16,315.32a2,2,0,1,0,2-1.77A1.89,1.89,0,0,0,66.16,315.32Z"/><path class="cls-1" d="M66.16,304a2,2,0,1,0,2-1.77A1.89,1.89,0,0,0,66.16,304Z"/><path class="cls-1" d="M78.11,337.91a2,2,0,1,0,2-1.76A1.89,1.89,0,0,0,78.11,337.91Z"/><path class="cls-1" d="M78.11,326.61a2,2,0,1,0,2-1.76A1.89,1.89,0,0,0,78.11,326.61Z"/><path class="cls-1" d="M78.11,315.32a2,2,0,1,0,2-1.77A1.89,1.89,0,0,0,78.11,315.32Z"/><path class="cls-1" d="M78.11,304a2,2,0,1,0,2-1.77A1.89,1.89,0,0,0,78.11,304Z"/><path class="cls-1" d="M90.06,337.91a2,2,0,1,0,2-1.76A1.89,1.89,0,0,0,90.06,337.91Z"/><path class="cls-1" d="M90.06,326.61a2,2,0,1,0,2-1.76A1.89,1.89,0,0,0,90.06,326.61Z"/><path class="cls-1" d="M90.06,315.32a2,2,0,1,0,2-1.77A1.89,1.89,0,0,0,90.06,315.32Z"/><path class="cls-1" d="M90.06,304a2,2,0,1,0,2-1.77A1.89,1.89,0,0,0,90.06,304Z"/><path class="cls-1" d="M102,337.91a2,2,0,1,0,2-1.76A1.89,1.89,0,0,0,102,337.91Z"/><path class="cls-1" d="M102,326.61a2,2,0,1,0,2-1.76A1.89,1.89,0,0,0,102,326.61Z"/><path class="cls-1" d="M102,315.32a2,2,0,1,0,2-1.77A1.89,1.89,0,0,0,102,315.32Z"/><path class="cls-1" d="M102,304a2,2,0,1,0,2-1.77A1.89,1.89,0,0,0,102,304Z"/><path class="cls-1" d="M114,337.91a2,2,0,1,0,2-1.76A1.89,1.89,0,0,0,114,337.91Z"/><path class="cls-1" d="M114,326.61a2,2,0,1,0,2-1.76A1.89,1.89,0,0,0,114,326.61Z"/><path class="cls-1" d="M114,315.32a2,2,0,1,0,2-1.77A1.89,1.89,0,0,0,114,315.32Z"/><path class="cls-1" d="M114,304a2,2,0,1,0,2-1.77A1.89,1.89,0,0,0,114,304Z"/><path class="cls-1" d="M125.91,337.91a2,2,0,1,0,2-1.76A1.89,1.89,0,0,0,125.91,337.91Z"/><path class="cls-1" d="M125.91,326.61a2,2,0,1,0,2-1.76A1.89,1.89,0,0,0,125.91,326.61Z"/><path class="cls-1" d="M125.91,315.32a2,2,0,1,0,2-1.77A1.89,1.89,0,0,0,125.91,315.32Z"/><path class="cls-1" d="M125.91,304a2,2,0,1,0,2-1.77A1.89,1.89,0,0,0,125.91,304Z"/><path class="cls-1" d="M137.85,337.91a2,2,0,1,0,2-1.76A1.9,1.9,0,0,0,137.85,337.91Z"/><path class="cls-1" d="M137.85,326.61a2,2,0,1,0,2-1.76A1.9,1.9,0,0,0,137.85,326.61Z"/><path class="cls-1" d="M137.85,315.32a2,2,0,1,0,2-1.77A1.9,1.9,0,0,0,137.85,315.32Z"/><path class="cls-1" d="M137.85,304a2,2,0,1,0,2-1.77A1.9,1.9,0,0,0,137.85,304Z"/><ellipse class="cls-2" cx="84.89" cy="75.29" rx="84.89" ry="75.29"/><ellipse class="cls-3" cx="148.07" cy="61.39" rx="41.97" ry="37.22"/><ellipse class="cls-4" cx="217.26" cy="115.7" rx="21.62" ry="19.17"/><ellipse class="cls-5" cx="285.13" cy="79" rx="41.38" ry="36.7"/><ellipse class="cls-6" cx="306.99" cy="84.64" rx="9.95" ry="8.82"/><ellipse class="cls-3" cx="296.12" cy="156.29" rx="20.82" ry="18.46"/><path class="cls-6" d="M163,156.29c0,3.45-3.15,6.24-7,6.24s-7-2.79-7-6.24,3.14-6.23,7-6.23S163,152.85,163,156.29Z"/><ellipse class="cls-7" cx="226.02" cy="373.78" rx="21.62" ry="19.17"/><ellipse class="cls-8" cx="254.39" cy="304.02" rx="9.95" ry="8.82"/><path class="cls-4" d="M288.68,398.5a2,2,0,1,0,2-1.77A1.89,1.89,0,0,0,288.68,398.5Z"/><path class="cls-4" d="M288.68,387.2a2,2,0,1,0,2-1.76A1.89,1.89,0,0,0,288.68,387.2Z"/><path class="cls-4" d="M288.68,375.9a2,2,0,1,0,2-1.76A1.89,1.89,0,0,0,288.68,375.9Z"/><path class="cls-4" d="M288.68,364.6a2,2,0,1,0,2-1.76A1.89,1.89,0,0,0,288.68,364.6Z"/><path class="cls-4" d="M300.63,398.5a2,2,0,1,0,2-1.77A1.89,1.89,0,0,0,300.63,398.5Z"/><path class="cls-4" d="M300.63,387.2a2,2,0,1,0,2-1.76A1.89,1.89,0,0,0,300.63,387.2Z"/><path class="cls-4" d="M300.63,375.9a2,2,0,1,0,2-1.76A1.89,1.89,0,0,0,300.63,375.9Z"/><path class="cls-4" d="M300.63,364.6a2,2,0,1,0,2-1.76A1.89,1.89,0,0,0,300.63,364.6Z"/><path class="cls-4" d="M312.57,398.5a2,2,0,1,0,2-1.77A1.9,1.9,0,0,0,312.57,398.5Z"/><path class="cls-4" d="M312.57,387.2a2,2,0,1,0,2-1.76A1.9,1.9,0,0,0,312.57,387.2Z"/><path class="cls-4" d="M312.57,375.9a2,2,0,1,0,2-1.76A1.9,1.9,0,0,0,312.57,375.9Z"/><path class="cls-4" d="M312.57,364.6a2,2,0,1,0,2-1.76A1.9,1.9,0,0,0,312.57,364.6Z"/><path class="cls-4" d="M324.52,398.5a2,2,0,1,0,2-1.77A1.89,1.89,0,0,0,324.52,398.5Z"/><path class="cls-4" d="M324.52,387.2a2,2,0,1,0,2-1.76A1.89,1.89,0,0,0,324.52,387.2Z"/><path class="cls-4" d="M324.52,375.9a2,2,0,1,0,2-1.76A1.89,1.89,0,0,0,324.52,375.9Z"/><path class="cls-4" d="M324.52,364.6a2,2,0,1,0,2-1.76A1.89,1.89,0,0,0,324.52,364.6Z"/><path class="cls-4" d="M336.47,398.5a2,2,0,1,0,2-1.77A1.89,1.89,0,0,0,336.47,398.5Z"/><path class="cls-4" d="M336.47,387.2a2,2,0,1,0,2-1.76A1.89,1.89,0,0,0,336.47,387.2Z"/><path class="cls-4" d="M336.47,375.9a2,2,0,1,0,2-1.76A1.89,1.89,0,0,0,336.47,375.9Z"/><path class="cls-4" d="M336.47,364.6a2,2,0,1,0,2-1.76A1.89,1.89,0,0,0,336.47,364.6Z"/><path class="cls-4" d="M348.42,398.5a2,2,0,1,0,2-1.77A1.89,1.89,0,0,0,348.42,398.5Z"/><path class="cls-4" d="M348.42,387.2a2,2,0,1,0,2-1.76A1.89,1.89,0,0,0,348.42,387.2Z"/><path class="cls-4" d="M348.42,375.9a2,2,0,1,0,2-1.76A1.89,1.89,0,0,0,348.42,375.9Z"/><path class="cls-4" d="M348.42,364.6a2,2,0,1,0,2-1.76A1.89,1.89,0,0,0,348.42,364.6Z"/><path class="cls-4" d="M360.37,398.5a2,2,0,1,0,2-1.77A1.89,1.89,0,0,0,360.37,398.5Z"/><path class="cls-4" d="M360.37,387.2a2,2,0,1,0,2-1.76A1.89,1.89,0,0,0,360.37,387.2Z"/><path class="cls-4" d="M360.37,375.9a2,2,0,1,0,2-1.76A1.89,1.89,0,0,0,360.37,375.9Z"/><path class="cls-4" d="M360.37,364.6a2,2,0,1,0,2-1.76A1.89,1.89,0,0,0,360.37,364.6Z"/><ellipse class="cls-9" cx="107.98" cy="392.95" rx="9.95" ry="8.82"/><ellipse class="cls-3" cx="190.04" cy="315.32" rx="20.82" ry="18.46"/><ellipse class="cls-4" cx="316.94" cy="313.55" rx="21.62" ry="19.17"/><ellipse class="cls-10" cx="167.47" cy="422.65" rx="41.38" ry="36.7"/><ellipse class="cls-6" cx="316.94" cy="250.95" rx="9.95" ry="8.82"/></g></g></svg>