<svg xmlns="http://www.w3.org/2000/svg" xmlns:xlink="http://www.w3.org/1999/xlink" viewBox="0 0 270.81 386.47"><defs><style>.cls-1,.cls-12,.cls-5,.cls-7{fill:none;}.cls-2{clip-path:url(#clip-path);}.cls-3{fill:#fd5014;}.cls-4{fill:url(#Degradado_sin_nombre_107);}.cls-5{stroke:#ed6e42;stroke-miterlimit:10;}.cls-12,.cls-5,.cls-7{stroke-width:3px;}.cls-6{fill:#cd16cd;}.cls-12,.cls-7{stroke-linecap:round;stroke-linejoin:round;}.cls-7{stroke:url(#Degradado_sin_nombre_4);}.cls-8{fill:#fd6c3a;}.cls-9{fill:url(#Degradado_sin_nombre_107-2);}.cls-10{fill:url(#Degradado_sin_nombre_106);}.cls-11{fill:url(#Degradado_sin_nombre_106-2);}.cls-12{stroke:url(#Degradado_sin_nombre_4-2);}</style><clipPath id="clip-path" transform="translate(47.21 41.48)"><rect class="cls-1" x="-46.19" y="46.19" width="312.87" height="220.5" transform="translate(266.69 46.19) rotate(90)"/></clipPath><linearGradient id="Degradado_sin_nombre_107" x1="-47.21" y1="21.62" x2="78.98" y2="21.62" gradientTransform="translate(19.94 -4.9) rotate(45)" gradientUnits="userSpaceOnUse"><stop offset="0.01" stop-color="#fd5014"/><stop offset="1" stop-color="#ca2e82"/></linearGradient><linearGradient id="Degradado_sin_nombre_4" x1="132.46" y1="24.73" x2="196.98" y2="24.73" gradientTransform="translate(65.73 -109.23) rotate(45)" gradientUnits="userSpaceOnUse"><stop offset="0" stop-color="#cd16cd"/><stop offset="0.01" stop-color="#cc16cc"/><stop offset="0.46" stop-color="#9a19b3"/><stop offset="0.81" stop-color="#7b1ba4"/><stop offset="1" stop-color="#6f1c9e"/></linearGradient><linearGradient id="Degradado_sin_nombre_107-2" x1="104.72" y1="271.77" x2="136.85" y2="271.77" gradientTransform="translate(290.4 27.48) rotate(58.73)" xlink:href="#Degradado_sin_nombre_107"/><linearGradient id="Degradado_sin_nombre_106" x1="134.48" y1="213.31" x2="149.26" y2="213.31" gradientTransform="translate(192.39 -37.84) rotate(45)" gradientUnits="userSpaceOnUse"><stop offset="0.01" stop-color="#fd6c3a"/><stop offset="1" stop-color="#ca2e82"/></linearGradient><linearGradient id="Degradado_sin_nombre_106-2" x1="26.65" y1="282.12" x2="41.44" y2="282.12" gradientTransform="translate(-190.28 112.1) rotate(-44.92)" xlink:href="#Degradado_sin_nombre_106"/><linearGradient id="Degradado_sin_nombre_4-2" x1="45.01" y1="312.73" x2="109.53" y2="312.73" gradientTransform="translate(363.42 164.78) rotate(76.54)" xlink:href="#Degradado_sin_nombre_4"/></defs><g id="Слой_2" data-name="Слой 2"><g id="OBJECTS"><g class="cls-2"><path class="cls-3" d="M2,241.72a1.48,1.48,0,1,0,1.48-1.48A1.48,1.48,0,0,0,2,241.72Z" transform="translate(47.21 41.48)"/><path class="cls-3" d="M2,232.25a1.48,1.48,0,1,0,1.48-1.48A1.48,1.48,0,0,0,2,232.25Z" transform="translate(47.21 41.48)"/><path class="cls-3" d="M2,222.78a1.48,1.48,0,1,0,1.48-1.48A1.48,1.48,0,0,0,2,222.78Z" transform="translate(47.21 41.48)"/><path class="cls-3" d="M2,213.31a1.48,1.48,0,1,0,1.48-1.48A1.48,1.48,0,0,0,2,213.31Z" transform="translate(47.21 41.48)"/><path class="cls-3" d="M10.85,241.72a1.48,1.48,0,1,0,1.48-1.48A1.48,1.48,0,0,0,10.85,241.72Z" transform="translate(47.21 41.48)"/><path class="cls-3" d="M10.85,232.25a1.48,1.48,0,1,0,1.48-1.48A1.48,1.48,0,0,0,10.85,232.25Z" transform="translate(47.21 41.48)"/><path class="cls-3" d="M10.85,222.78a1.48,1.48,0,1,0,1.48-1.48A1.48,1.48,0,0,0,10.85,222.78Z" transform="translate(47.21 41.48)"/><path class="cls-3" d="M10.85,213.31a1.48,1.48,0,1,0,1.48-1.48A1.48,1.48,0,0,0,10.85,213.31Z" transform="translate(47.21 41.48)"/><path class="cls-3" d="M19.73,241.72a1.48,1.48,0,1,0,1.48-1.48A1.48,1.48,0,0,0,19.73,241.72Z" transform="translate(47.21 41.48)"/><path class="cls-3" d="M19.73,232.25a1.48,1.48,0,1,0,1.48-1.48A1.48,1.48,0,0,0,19.73,232.25Z" transform="translate(47.21 41.48)"/><path class="cls-3" d="M19.73,222.78a1.48,1.48,0,1,0,1.48-1.48A1.48,1.48,0,0,0,19.73,222.78Z" transform="translate(47.21 41.48)"/><path class="cls-3" d="M19.73,213.31a1.48,1.48,0,1,0,1.48-1.48A1.48,1.48,0,0,0,19.73,213.31Z" transform="translate(47.21 41.48)"/><path class="cls-3" d="M28.61,241.72a1.48,1.48,0,1,0,1.48-1.48A1.48,1.48,0,0,0,28.61,241.72Z" transform="translate(47.21 41.48)"/><path class="cls-3" d="M28.61,232.25a1.48,1.48,0,1,0,1.48-1.48A1.48,1.48,0,0,0,28.61,232.25Z" transform="translate(47.21 41.48)"/><path class="cls-3" d="M28.61,222.78a1.48,1.48,0,1,0,1.48-1.48A1.48,1.48,0,0,0,28.61,222.78Z" transform="translate(47.21 41.48)"/><path class="cls-3" d="M28.61,213.31a1.48,1.48,0,1,0,1.48-1.48A1.48,1.48,0,0,0,28.61,213.31Z" transform="translate(47.21 41.48)"/><path class="cls-3" d="M37.49,241.72A1.48,1.48,0,1,0,39,240.24,1.49,1.49,0,0,0,37.49,241.72Z" transform="translate(47.21 41.48)"/><path class="cls-3" d="M37.49,232.25A1.48,1.48,0,1,0,39,230.77,1.48,1.48,0,0,0,37.49,232.25Z" transform="translate(47.21 41.48)"/><path class="cls-3" d="M37.49,222.78A1.48,1.48,0,1,0,39,221.3,1.48,1.48,0,0,0,37.49,222.78Z" transform="translate(47.21 41.48)"/><path class="cls-3" d="M37.49,213.31A1.48,1.48,0,1,0,39,211.83,1.48,1.48,0,0,0,37.49,213.31Z" transform="translate(47.21 41.48)"/><path class="cls-3" d="M46.37,241.72a1.48,1.48,0,1,0,1.48-1.48A1.49,1.49,0,0,0,46.37,241.72Z" transform="translate(47.21 41.48)"/><path class="cls-3" d="M46.37,232.25a1.48,1.48,0,1,0,1.48-1.48A1.48,1.48,0,0,0,46.37,232.25Z" transform="translate(47.21 41.48)"/><path class="cls-3" d="M46.37,222.78a1.48,1.48,0,1,0,1.48-1.48A1.48,1.48,0,0,0,46.37,222.78Z" transform="translate(47.21 41.48)"/><path class="cls-3" d="M46.37,213.31a1.48,1.48,0,1,0,1.48-1.48A1.48,1.48,0,0,0,46.37,213.31Z" transform="translate(47.21 41.48)"/><path class="cls-3" d="M55.25,241.72a1.48,1.48,0,1,0,1.48-1.48A1.49,1.49,0,0,0,55.25,241.72Z" transform="translate(47.21 41.48)"/><path class="cls-3" d="M55.25,232.25a1.48,1.48,0,1,0,1.48-1.48A1.48,1.48,0,0,0,55.25,232.25Z" transform="translate(47.21 41.48)"/><path class="cls-3" d="M55.25,222.78a1.48,1.48,0,1,0,1.48-1.48A1.48,1.48,0,0,0,55.25,222.78Z" transform="translate(47.21 41.48)"/><path class="cls-3" d="M55.25,213.31a1.48,1.48,0,1,0,1.48-1.48A1.48,1.48,0,0,0,55.25,213.31Z" transform="translate(47.21 41.48)"/><circle class="cls-4" cx="15.89" cy="21.62" r="63.09" transform="translate(36.58 59.04) rotate(-45)"/><circle class="cls-5" cx="62.85" cy="9.97" r="31.2" transform="translate(58.56 88.84) rotate(-45)"/><circle class="cls-6" cx="161.49" cy="96.97" r="16.07"/><circle class="cls-7" cx="164.72" cy="24.73" r="30.76" transform="translate(77.97 165.2) rotate(-45)"/><circle class="cls-8" cx="180.97" cy="29.46" r="7.39" transform="translate(158.06 240.35) rotate(-76.76)"/><circle class="cls-5" cx="172.89" cy="89.51" r="15.47" transform="translate(34.55 189.95) rotate(-45)"/><path class="cls-8" d="M73.94,89.51a5.23,5.23,0,1,1-5.23-5.23A5.23,5.23,0,0,1,73.94,89.51Z" transform="translate(47.21 41.48)"/><circle class="cls-9" cx="120.78" cy="271.77" r="16.07" transform="matrix(0.52, -0.85, 0.85, 0.52, -127, 275.44)"/><circle class="cls-10" cx="141.87" cy="213.31" r="7.39" transform="translate(-62.07 204.27) rotate(-45)"/><path class="cls-6" d="M167.36,292.49a1.48,1.48,0,1,0,1.48-1.48A1.48,1.48,0,0,0,167.36,292.49Z" transform="translate(47.21 41.48)"/><path class="cls-6" d="M167.36,283a1.48,1.48,0,1,0,1.48-1.48A1.48,1.48,0,0,0,167.36,283Z" transform="translate(47.21 41.48)"/><path class="cls-6" d="M167.36,273.55a1.48,1.48,0,1,0,1.48-1.48A1.48,1.48,0,0,0,167.36,273.55Z" transform="translate(47.21 41.48)"/><path class="cls-6" d="M167.36,264.08a1.48,1.48,0,1,0,1.48-1.48A1.48,1.48,0,0,0,167.36,264.08Z" transform="translate(47.21 41.48)"/><path class="cls-6" d="M176.24,292.49a1.48,1.48,0,1,0,1.48-1.48A1.48,1.48,0,0,0,176.24,292.49Z" transform="translate(47.21 41.48)"/><path class="cls-6" d="M176.24,283a1.48,1.48,0,1,0,1.48-1.48A1.48,1.48,0,0,0,176.24,283Z" transform="translate(47.21 41.48)"/><path class="cls-6" d="M176.24,273.55a1.48,1.48,0,1,0,1.48-1.48A1.48,1.48,0,0,0,176.24,273.55Z" transform="translate(47.21 41.48)"/><path class="cls-6" d="M176.24,264.08a1.48,1.48,0,1,0,1.48-1.48A1.48,1.48,0,0,0,176.24,264.08Z" transform="translate(47.21 41.48)"/><path class="cls-6" d="M185.12,292.49A1.48,1.48,0,1,0,186.6,291,1.48,1.48,0,0,0,185.12,292.49Z" transform="translate(47.21 41.48)"/><path class="cls-6" d="M185.12,283a1.48,1.48,0,1,0,1.48-1.48A1.48,1.48,0,0,0,185.12,283Z" transform="translate(47.21 41.48)"/><path class="cls-6" d="M185.12,273.55a1.48,1.48,0,1,0,1.48-1.48A1.48,1.48,0,0,0,185.12,273.55Z" transform="translate(47.21 41.48)"/><path class="cls-6" d="M185.12,264.08a1.48,1.48,0,1,0,1.48-1.48A1.48,1.48,0,0,0,185.12,264.08Z" transform="translate(47.21 41.48)"/><path class="cls-6" d="M194,292.49a1.48,1.48,0,1,0,1.48-1.48A1.48,1.48,0,0,0,194,292.49Z" transform="translate(47.21 41.48)"/><path class="cls-6" d="M194,283a1.48,1.48,0,1,0,1.48-1.48A1.48,1.48,0,0,0,194,283Z" transform="translate(47.21 41.48)"/><path class="cls-6" d="M194,273.55a1.48,1.48,0,1,0,1.48-1.48A1.48,1.48,0,0,0,194,273.55Z" transform="translate(47.21 41.48)"/><path class="cls-6" d="M194,264.08a1.48,1.48,0,1,0,1.48-1.48A1.48,1.48,0,0,0,194,264.08Z" transform="translate(47.21 41.48)"/><path class="cls-6" d="M202.88,292.49a1.48,1.48,0,1,0,1.48-1.48A1.48,1.48,0,0,0,202.88,292.49Z" transform="translate(47.21 41.48)"/><path class="cls-6" d="M202.88,283a1.48,1.48,0,1,0,1.48-1.48A1.48,1.48,0,0,0,202.88,283Z" transform="translate(47.21 41.48)"/><path class="cls-6" d="M202.88,273.55a1.48,1.48,0,1,0,1.48-1.48A1.48,1.48,0,0,0,202.88,273.55Z" transform="translate(47.21 41.48)"/><path class="cls-6" d="M202.88,264.08a1.48,1.48,0,1,0,1.48-1.48A1.48,1.48,0,0,0,202.88,264.08Z" transform="translate(47.21 41.48)"/><path class="cls-6" d="M211.76,292.49a1.48,1.48,0,1,0,1.48-1.48A1.48,1.48,0,0,0,211.76,292.49Z" transform="translate(47.21 41.48)"/><path class="cls-6" d="M211.76,283a1.48,1.48,0,1,0,1.48-1.48A1.48,1.48,0,0,0,211.76,283Z" transform="translate(47.21 41.48)"/><path class="cls-6" d="M211.76,273.55a1.48,1.48,0,1,0,1.48-1.48A1.48,1.48,0,0,0,211.76,273.55Z" transform="translate(47.21 41.48)"/><path class="cls-6" d="M211.76,264.08a1.48,1.48,0,1,0,1.48-1.48A1.48,1.48,0,0,0,211.76,264.08Z" transform="translate(47.21 41.48)"/><path class="cls-6" d="M220.64,292.49a1.48,1.48,0,1,0,1.48-1.48A1.48,1.48,0,0,0,220.64,292.49Z" transform="translate(47.21 41.48)"/><path class="cls-6" d="M220.64,283a1.48,1.48,0,1,0,1.48-1.48A1.48,1.48,0,0,0,220.64,283Z" transform="translate(47.21 41.48)"/><path class="cls-6" d="M220.64,273.55a1.48,1.48,0,1,0,1.48-1.48A1.48,1.48,0,0,0,220.64,273.55Z" transform="translate(47.21 41.48)"/><path class="cls-6" d="M220.64,264.08a1.48,1.48,0,1,0,1.48-1.48A1.48,1.48,0,0,0,220.64,264.08Z" transform="translate(47.21 41.48)"/><circle class="cls-11" cx="33.05" cy="287.84" r="7.39" transform="translate(26.17 44.68) rotate(-4.21)"/><circle class="cls-5" cx="94.04" cy="222.78" r="15.47" transform="translate(-30.23 93.76) rotate(-22.28)"/><circle class="cls-6" cx="235.57" cy="262.78" r="16.07"/><circle class="cls-12" cx="77.27" cy="312.73" r="30.76" transform="translate(-197.65 356.55) rotate(-76.54)"/><circle class="cls-8" cx="188.36" cy="168.83" r="7.39" transform="translate(-17.01 224.12) rotate(-45)"/></g></g></g></svg>